<?xml version="1.0" encoding="utf-8"?>
<!-- Generator: Adobe Illustrator 27.9.2, SVG Export Plug-In . SVG Version: 6.00 Build 0)  -->
<svg version="1.1" id="Layer_1" xmlns="http://www.w3.org/2000/svg" xmlns:xlink="http://www.w3.org/1999/xlink" x="0px" y="0px"
	 viewBox="0 0 256 182" style="enable-background:new 0 0 256 182;" xml:space="preserve">
<path d="M147.9,29.9v-7.4c0-12.4-10.5-22.5-23.6-22.5s-23.6,10.1-23.6,22.5v7.4h-9.7v51.7l33.4,15.6L158,81.6V29.9H147.9z
	 M112.7,22.5c0-5.7,5.3-10.5,11.6-10.5c6.3,0,11.6,4.6,11.6,10.5v7.4h-23.1V22.5z M144.3,73l-20,9.3l-20-9.3V42.1h40V73z
	 M14.3,177.3c-2.7,0-5-0.7-7-2s-3.5-3.2-4.5-5.6c-1.1-2.4-1.6-5.3-1.6-8.7v-12c0-3.4,0.5-6.2,1.6-8.7c1.1-2.4,2.6-4.3,4.5-5.6
	s4.3-2,7-2c2.2,0,4.3,0.6,6.1,1.7c1.8,1.1,3.3,2.7,4.5,4.8c1.2,2.1,2,4.6,2.5,7.5H21c-0.3-1.4-0.8-2.7-1.5-3.7
	c-0.7-1-1.4-1.8-2.4-2.4c-0.9-0.6-1.9-0.8-2.9-0.8c-2.1,0-3.8,0.8-5,2.5c-1.2,1.6-1.8,3.9-1.8,6.7v12c0,2.8,0.6,5.1,1.8,6.7
	c1.2,1.6,2.9,2.5,5,2.5c1.6,0,3-0.6,4.2-1.8c1.2-1.2,2.1-2.9,2.5-5.1h6.3c-0.5,2.9-1.3,5.4-2.5,7.5c-1.2,2.1-2.7,3.7-4.5,4.8
	S16.5,177.3,14.3,177.3z M33.6,176.9v-43.6h6.1v43.6H33.6z M36.1,140.2v-6.9h21.8v6.9H36.1z M36.1,158.7v-6.8h19v6.8H36.1z
	 M36.1,176.9V170h21.8v6.9H36.1z M64.8,176.9v-43.6h6.1v43.6H64.8z M67.3,158.9v-6.9H80c1.3,0,2.4-0.5,3.1-1.6
	c0.8-1.1,1.2-2.5,1.2-4.3c0-1.8-0.4-3.2-1.2-4.3c-0.8-1.1-1.8-1.6-3.1-1.6H67.3v-6.9h12.9c2.1,0,3.9,0.5,5.5,1.6
	c1.6,1.1,2.8,2.5,3.7,4.5c0.9,1.9,1.3,4.2,1.3,6.7c0,2.6-0.4,4.8-1.3,6.7c-0.9,1.9-2.1,3.4-3.7,4.5c-1.6,1.1-3.4,1.6-5.5,1.6H67.3z
	 M85,176.9l-8.7-19.3l6.3-1.4l9.7,20.7H85z M98.8,176.9v-43.6h6.1v43.6H98.8z M101.8,176.9v-6.8h10.9c2.2,0,3.8-0.5,4.8-1.6
	c1-1.1,1.5-2.5,1.5-4.3v-0.1c0-1.9-0.5-3.4-1.4-4.5c-0.9-1.1-2.3-1.6-4.3-1.6h-11.6v-6.7h11.6c1.7,0,3-0.5,3.8-1.4
	c0.9-1,1.3-2.3,1.3-4.2c0-1.8-0.5-3.2-1.4-4.1c-0.9-0.9-2.3-1.4-4.1-1.4h-11.2v-6.8h11.8c3.6,0,6.4,1,8.3,3.1c1.9,2.1,2.8,5,2.8,8.7
	c0,2.4-0.6,4.4-1.8,6.1c-1.2,1.7-2.9,2.8-5.2,3.3c2.4,0.4,4.2,1.5,5.5,3.4c1.3,1.9,2,4.2,2,6.9v0.1c0,3.7-1,6.5-3,8.7
	c-2,2.1-4.7,3.2-8.2,3.2H101.8z M132.4,176.9v-43.6h6.1v43.6H132.4z M134.9,140.2v-6.9h21.8v6.9H134.9z M134.9,158.7v-6.8h19v6.8
	H134.9z M134.9,176.9V170h21.8v6.9H134.9z M163.6,176.9v-43.6h6.1v43.6H163.6z M166.1,158.9v-6.9h12.8c1.3,0,2.4-0.5,3.1-1.6
	c0.8-1.1,1.2-2.5,1.2-4.3c0-1.8-0.4-3.2-1.2-4.3c-0.8-1.1-1.8-1.6-3.1-1.6h-12.8v-6.9H179c2.1,0,3.9,0.5,5.5,1.6
	c1.6,1.1,2.8,2.5,3.7,4.5c0.9,1.9,1.3,4.2,1.3,6.7c0,2.6-0.4,4.8-1.3,6.7c-0.9,1.9-2.1,3.4-3.7,4.5c-1.6,1.1-3.4,1.6-5.5,1.6H166.1z
	 M183.7,176.9l-8.7-19.3l6.3-1.4l9.7,20.7H183.7z M209.2,177.3c-4.2,0-7.5-1.4-9.8-4.2c-2.3-2.8-3.5-6.8-3.5-12v-27.8h6.1v28
	c0,2.8,0.6,5,1.9,6.6c1.2,1.6,3,2.3,5.3,2.3c2.3,0,4.1-0.8,5.3-2.3c1.3-1.6,1.9-3.8,1.9-6.6v-28h6.1v27.8c0,5.2-1.2,9.1-3.5,12
	S213.5,177.3,209.2,177.3z M241,177.3c-1.8,0-3.5-0.2-5.1-0.6c-1.6-0.4-3.2-1-4.6-1.8c-1.4-0.8-2.7-1.8-3.9-3l3.2-5.7
	c1.4,1.4,3,2.5,4.8,3.2c1.8,0.7,3.7,1.1,5.6,1.1c2.5,0,4.4-0.5,5.8-1.6c1.4-1,2-2.5,2-4.4v0c0-1.5-0.3-2.6-1-3.4
	c-0.7-0.8-1.6-1.4-2.7-1.7c-1.1-0.4-2.3-0.7-3.7-0.9c-1.4-0.3-2.8-0.6-4.3-1c-1.5-0.4-2.8-1-4-1.8c-1.2-0.8-2.2-2-2.9-3.6
	c-0.7-1.5-1.1-3.6-1.1-6.2v0c0-4.2,1.2-7.4,3.5-9.6c2.3-2.3,5.6-3.4,9.9-3.4c2,0,4,0.4,6,1.2s3.9,1.9,5.7,3.4l-3,5.9
	c-1.4-1.2-2.9-2.1-4.4-2.7c-1.5-0.6-2.9-0.9-4.3-0.9c-2.3,0-4.2,0.5-5.4,1.5c-1.3,1-1.9,2.4-1.9,4.3v0c0,1.5,0.4,2.7,1.1,3.5
	s1.7,1.4,3,1.8c1.2,0.4,2.5,0.7,3.9,1.1c1.4,0.3,2.8,0.7,4.2,1.2c1.4,0.5,2.6,1.1,3.8,2s2,2,2.7,3.6c0.7,1.5,1,3.5,1,5.9v0.1
	c0,4.1-1.2,7.3-3.6,9.5C248.8,176.2,245.4,177.3,241,177.3z"/>
</svg>
