<?xml version="1.0" encoding="utf-8"?>
<!-- Generator: Adobe Illustrator 27.9.2, SVG Export Plug-In . SVG Version: 6.00 Build 0)  -->
<svg version="1.1" id="Layer_1" xmlns="http://www.w3.org/2000/svg" xmlns:xlink="http://www.w3.org/1999/xlink" x="0px" y="0px"
	 viewBox="0 0 256 66" style="enable-background:new 0 0 256 66;" xml:space="preserve">
<path d="M38.5,15.2c0-8.3-7.2-15.2-16-15.2s-16,6.9-16,15.2V20H0v34.9l22.5,10.5L45,54.9V20.2h-6.6V15.2z M14.7,15.2
	c0-3.9,3.4-7,7.8-7s7.8,3.1,7.8,7V20H14.7V15.2z M36,49.3l-13.4,6.3L9.1,49.3v-21H36V49.3z"/>
<g>
	<path d="M64.6,55.9c-2.1,0-3.9-0.6-5.4-1.9s-2.7-3-3.5-5.3c-0.8-2.3-1.2-5-1.2-8.2V29.3c0-3.2,0.4-5.9,1.2-8.2
		c0.8-2.3,2-4.1,3.5-5.3s3.3-1.9,5.4-1.9c1.7,0,3.3,0.5,4.7,1.6c1.4,1.1,2.5,2.6,3.5,4.6c0.9,2,1.6,4.3,1.9,7.1h-4.8
		c-0.2-1.4-0.6-2.5-1.1-3.5c-0.5-1-1.1-1.7-1.8-2.3c-0.7-0.5-1.5-0.8-2.3-0.8c-1.6,0-2.9,0.8-3.9,2.3c-1,1.6-1.4,3.7-1.4,6.4v11.3
		c0,2.7,0.5,4.8,1.4,6.3c1,1.5,2.2,2.3,3.9,2.3c1.2,0,2.3-0.6,3.3-1.7c1-1.1,1.6-2.7,1.9-4.8h4.8c-0.4,2.7-1,5.1-1.9,7.1
		c-0.9,2-2.1,3.5-3.5,4.6S66.4,55.9,64.6,55.9z"/>
	<path d="M79.6,55.5V14.4h4.7v41.2H79.6z M81.5,20.8v-6.5h16.8v6.5H81.5z M81.5,38.3v-6.5h14.7v6.5H81.5z M81.5,55.5V49h16.8v6.5
		H81.5z"/>
	<path d="M103.7,55.5V14.3h4.7v41.2H103.7z M105.6,38.5V32h9.9c1,0,1.8-0.5,2.4-1.5c0.6-1,0.9-2.4,0.9-4.1c0-1.7-0.3-3-0.9-4.1
		c-0.6-1-1.4-1.5-2.4-1.5h-9.9v-6.5h10c1.6,0,3,0.5,4.3,1.5c1.2,1,2.2,2.4,2.8,4.2c0.7,1.8,1,3.9,1,6.4s-0.3,4.6-1,6.4
		c-0.7,1.8-1.6,3.2-2.8,4.2s-2.6,1.5-4.3,1.5H105.6z M119.3,55.5l-6.8-18.3l4.9-1.3l7.5,19.6H119.3z"/>
	<path d="M130,55.5V14.4h4.7v41.2H130z M132.3,55.5v-6.4h8.4c1.7,0,2.9-0.5,3.7-1.5c0.8-1,1.2-2.4,1.2-4.1v-0.1
		c0-1.8-0.4-3.2-1.1-4.3c-0.7-1-1.8-1.6-3.3-1.6h-8.9v-6.3h8.9c1.3,0,2.3-0.5,3-1.4c0.7-0.9,1-2.2,1-3.9c0-1.7-0.4-3-1.1-3.9
		c-0.7-0.9-1.8-1.3-3.2-1.3h-8.7v-6.4h9.1c2.8,0,4.9,1,6.4,3c1.5,2,2.2,4.7,2.2,8.2c0,2.2-0.5,4.2-1.4,5.8c-0.9,1.6-2.3,2.7-4.1,3.1
		c1.8,0.4,3.3,1.5,4.3,3.3s1.5,4,1.5,6.5v0.1c0,3.5-0.8,6.2-2.3,8.2c-1.5,2-3.6,3-6.3,3H132.3z"/>
	<path d="M156,55.5V14.4h4.7v41.2H156z M157.9,20.8v-6.5h16.8v6.5H157.9z M157.9,38.3v-6.5h14.7v6.5H157.9z M157.9,55.5V49h16.8v6.5
		H157.9z"/>
	<path d="M180.1,55.5V14.3h4.7v41.2H180.1z M182,38.5V32h9.9c1,0,1.8-0.5,2.4-1.5c0.6-1,0.9-2.4,0.9-4.1c0-1.7-0.3-3-0.9-4.1
		c-0.6-1-1.4-1.5-2.4-1.5H182v-6.5h10c1.6,0,3,0.5,4.3,1.5c1.2,1,2.2,2.4,2.8,4.2c0.7,1.8,1,3.9,1,6.4s-0.3,4.6-1,6.4
		c-0.7,1.8-1.6,3.2-2.8,4.2s-2.6,1.5-4.3,1.5H182z M195.7,55.5l-6.8-18.3l4.9-1.3l7.5,19.6H195.7z"/>
	<path d="M215.4,55.9c-3.3,0-5.8-1.3-7.6-4s-2.7-6.4-2.7-11.3V14.4h4.7v26.5c0,2.7,0.5,4.8,1.4,6.2c1,1.5,2.3,2.2,4.1,2.2
		c1.8,0,3.1-0.7,4.1-2.2c1-1.5,1.5-3.5,1.5-6.2V14.4h4.7v26.3c0,4.9-0.9,8.6-2.7,11.3S218.7,55.9,215.4,55.9z"/>
	<path d="M240,55.9c-1.4,0-2.7-0.2-4-0.6c-1.3-0.4-2.5-1-3.6-1.7c-1.1-0.8-2.1-1.7-3.1-2.8l2.5-5.4c1.1,1.3,2.3,2.4,3.7,3
		c1.4,0.7,2.8,1,4.4,1c1.9,0,3.4-0.5,4.5-1.5c1.1-1,1.6-2.4,1.6-4.2v0c0-1.4-0.3-2.4-0.8-3.2c-0.5-0.7-1.2-1.3-2.1-1.6
		c-0.9-0.3-1.8-0.6-2.8-0.9c-1.1-0.2-2.2-0.6-3.3-0.9c-1.1-0.4-2.2-0.9-3.1-1.7c-0.9-0.8-1.7-1.9-2.3-3.4c-0.6-1.5-0.9-3.4-0.9-5.8
		v0c0-3.9,0.9-7,2.7-9.1s4.4-3.2,7.6-3.2c1.5,0,3.1,0.4,4.6,1.1s3,1.8,4.4,3.2l-2.3,5.6c-1.1-1.2-2.2-2-3.4-2.6s-2.3-0.9-3.3-0.9
		c-1.8,0-3.2,0.5-4.2,1.4c-1,1-1.5,2.3-1.5,4v0c0,1.4,0.3,2.5,0.9,3.3s1.3,1.3,2.3,1.7s2,0.7,3,1c1.1,0.3,2.1,0.7,3.2,1.1
		c1.1,0.4,2,1.1,2.9,1.9s1.6,1.9,2.1,3.4c0.5,1.4,0.8,3.3,0.8,5.6v0.1c0,3.9-0.9,6.9-2.8,9C246,54.9,243.4,55.9,240,55.9z"/>
</g>
</svg>
