<?xml version="1.0" encoding="utf-8"?>
<!-- Generator: Adobe Illustrator 27.9.2, SVG Export Plug-In . SVG Version: 6.00 Build 0)  -->
<svg version="1.1" id="Layer_1" xmlns="http://www.w3.org/2000/svg" xmlns:xlink="http://www.w3.org/1999/xlink" x="0px" y="0px"
	 viewBox="0 0 497 85" style="enable-background:new 0 0 497 85;" xml:space="preserve">
<path d="M49.6,19.7C49.6,8.9,40.3,0,29,0S8.5,8.9,8.5,19.7V26H0v45.3L29,85l29-13.6V26.2h-8.5L49.6,19.7z M18.9,19.7
	c0-5.1,4.4-9.2,10.1-9.2s10.1,4.1,10.1,9.2V26H18.9V19.7z M46.3,64.1L29,72.2l-17.3-8.1V36.8h34.7V64.1z"/>
<path d="M334.4,65.3l3.3-4.3c3,3.3,7.8,6.5,14.2,6.5c8,0,10.6-4.4,10.6-7.8c0-11.7-26.7-5.3-26.7-21.5c0-7.5,6.6-12.6,15.5-12.6
	c6.9,0,12.2,2.3,16,6.3l-3.4,4.2c-3.4-3.8-8.1-5.5-13-5.5c-5.4,0-9.3,2.9-9.3,7.2c0,10.2,26.7,4.4,26.7,21.3
	c0,6.6-4.5,13.4-16.6,13.4C343.8,72.5,338.1,69.5,334.4,65.3z"/>
<path d="M373.1,54V26.2h5.6v27.7c0,8.3,4.5,13.6,12.8,13.6c8.3,0,12.8-5.3,12.8-13.6V26.2h5.6v27.8c0,11.3-6.1,18.5-18.4,18.5
	C379.3,72.5,373.1,65.2,373.1,54z"/>
<path d="M417.5,71.7V26.2h5.6v45.5H417.5z"/>
<path d="M442.6,71.7V31.2h-14.3v-5h34.2v5h-14.3v40.4L442.6,71.7z"/>
<path d="M467.5,71.7V26.2H497v5h-23.9v14.7h23.4v5h-23.4v15.7H497v5H467.5z"/>
<g>
	<path d="M83.1,73.2c-2.7,0-5-0.7-7-2.1c-2-1.4-3.5-3.4-4.5-6C70.5,62.5,70,59.5,70,56V43.3c0-3.6,0.5-6.6,1.6-9.2
		c1.1-2.6,2.6-4.6,4.5-6c2-1.4,4.3-2.1,7-2.1c2.2,0,4.2,0.6,6,1.8c1.8,1.2,3.3,2.9,4.5,5.1c1.2,2.2,2,4.9,2.4,7.9h-6.2
		c-0.3-1.5-0.8-2.8-1.4-3.9c-0.7-1.1-1.4-1.9-2.3-2.5c-0.9-0.6-1.9-0.9-2.9-0.9c-2.1,0-3.8,0.9-5,2.6c-1.2,1.7-1.8,4.1-1.8,7.1V56
		c0,3,0.6,5.4,1.8,7.1c1.2,1.7,2.9,2.6,5,2.6c1.6,0,3-0.6,4.2-1.9c1.2-1.3,2.1-3.1,2.5-5.4h6.2c-0.5,3.1-1.3,5.7-2.5,7.9
		c-1.2,2.2-2.7,3.9-4.5,5.1C87.3,72.6,85.3,73.2,83.1,73.2z"/>
	<path d="M102.4,72.7V26.5h6.1v46.2H102.4z M104.9,33.8v-7.3h21.7v7.3H104.9z M104.9,53.4v-7.2h18.9v7.2H104.9z M104.9,72.7v-7.3
		h21.7v7.3H104.9z"/>
	<path d="M133.5,72.7V26.5h6.1v46.2H133.5z M136,53.6v-7.3h12.7c1.3,0,2.3-0.6,3.1-1.7c0.8-1.2,1.2-2.7,1.2-4.6
		c0-1.9-0.4-3.4-1.2-4.6c-0.8-1.2-1.8-1.7-3.1-1.7H136v-7.3h12.9c2.1,0,3.9,0.6,5.5,1.7c1.6,1.1,2.8,2.7,3.7,4.7
		c0.9,2,1.3,4.4,1.3,7.1c0,2.7-0.4,5.1-1.3,7.1c-0.9,2-2.1,3.6-3.7,4.7s-3.4,1.7-5.5,1.7H136z M153.6,72.7l-8.7-20.5l6.3-1.5
		l9.7,21.9H153.6z"/>
	<path d="M167.4,72.7V26.5h6v46.2H167.4z M170.4,72.7v-7.2h10.9c2.2,0,3.8-0.6,4.8-1.7c1-1.1,1.5-2.7,1.5-4.6v-0.1
		c0-2-0.5-3.6-1.4-4.8c-0.9-1.2-2.3-1.7-4.3-1.7h-11.5v-7.1h11.5c1.7,0,3-0.5,3.8-1.5c0.9-1,1.3-2.5,1.3-4.4c0-1.9-0.5-3.4-1.4-4.3
		c-0.9-1-2.3-1.5-4.1-1.5h-11.2v-7.2h11.8c3.6,0,6.4,1.1,8.2,3.3c1.9,2.2,2.8,5.3,2.8,9.2c0,2.5-0.6,4.7-1.8,6.5
		c-1.2,1.8-2.9,3-5.2,3.5c2.4,0.4,4.2,1.6,5.5,3.7s2,4.5,2,7.3v0.1c0,3.9-1,6.9-2.9,9.2c-2,2.3-4.7,3.4-8.1,3.4H170.4z"/>
	<path d="M200.9,72.7V26.5h6.1v46.2H200.9z M203.4,33.8v-7.3h21.7v7.3H203.4z M203.4,53.4v-7.2h18.9v7.2H203.4z M203.4,72.7v-7.3
		h21.7v7.3H203.4z"/>
	<path d="M232,72.7V26.5h6.1v46.2H232z M234.5,53.6v-7.3h12.7c1.3,0,2.3-0.6,3.1-1.7c0.8-1.2,1.2-2.7,1.2-4.6c0-1.9-0.4-3.4-1.2-4.6
		c-0.8-1.2-1.8-1.7-3.1-1.7h-12.7v-7.3h12.9c2.1,0,3.9,0.6,5.5,1.7c1.6,1.1,2.8,2.7,3.7,4.7c0.9,2,1.3,4.4,1.3,7.1
		c0,2.7-0.4,5.1-1.3,7.1c-0.9,2-2.1,3.6-3.7,4.7c-1.6,1.1-3.4,1.7-5.5,1.7H234.5z M252.1,72.7l-8.7-20.5l6.3-1.5l9.7,21.9H252.1z"/>
	<path d="M277.5,73.2c-4.2,0-7.4-1.5-9.7-4.5c-2.3-3-3.5-7.2-3.5-12.7V26.5h6.1v29.7c0,3,0.6,5.3,1.9,7c1.2,1.7,3,2.5,5.3,2.5
		c2.3,0,4.1-0.8,5.3-2.5c1.3-1.7,1.9-4,1.9-7V26.5h6.1V56c0,5.5-1.2,9.7-3.5,12.7C285,71.7,281.8,73.2,277.5,73.2z"/>
	<path d="M309.2,73.2c-1.8,0-3.5-0.2-5.1-0.7c-1.6-0.4-3.2-1.1-4.6-1.9c-1.4-0.8-2.7-1.9-3.9-3.1l3.2-6.1c1.4,1.5,3,2.6,4.8,3.4
		c1.8,0.8,3.6,1.2,5.6,1.2c2.5,0,4.4-0.6,5.7-1.7c1.4-1.1,2-2.7,2-4.7v0c0-1.5-0.3-2.7-1-3.6c-0.7-0.8-1.6-1.4-2.7-1.8
		c-1.1-0.4-2.3-0.7-3.7-1c-1.4-0.3-2.8-0.6-4.3-1c-1.4-0.4-2.8-1.1-4-1.9c-1.2-0.9-2.2-2.1-2.9-3.8c-0.7-1.6-1.1-3.8-1.1-6.6v0
		c0-4.4,1.2-7.8,3.5-10.2c2.3-2.4,5.6-3.6,9.9-3.6c2,0,4,0.4,5.9,1.2c2,0.8,3.9,2,5.7,3.6l-2.9,6.3c-1.4-1.3-2.9-2.3-4.3-2.9
		c-1.5-0.6-2.9-1-4.3-1c-2.3,0-4.1,0.5-5.4,1.6c-1.3,1.1-1.9,2.6-1.9,4.5v0c0,1.6,0.4,2.8,1.1,3.7c0.8,0.8,1.7,1.5,2.9,1.9
		s2.5,0.8,3.9,1.1c1.4,0.3,2.8,0.8,4.1,1.2c1.4,0.5,2.6,1.2,3.8,2.1s2,2.2,2.7,3.8c0.7,1.6,1,3.7,1,6.2v0.1c0,4.4-1.2,7.7-3.6,10.1
		C317,72,313.6,73.2,309.2,73.2z"/>
</g>
</svg>
